<svg xmlns="http://www.w3.org/2000/svg" fill="none">
    <symbol id="ush-text" viewBox="0 0 105 20">
        <path d="M101.304 19.5488H105V5.66105H101.304V19.5488ZM101.304 3.24523H105V0.176389H101.304V3.24523ZM94.1328 12.6801C94.1328 14.9195 93.3442 16.8316 91.5451 16.8316C89.8939 16.8316 88.8345 15.1208 88.8345 12.4285C88.8345 9.98784 89.6967 8.30246 91.4958 8.30246C93.3686 8.30246 94.1328 10.1897 94.1328 12.1017V12.6801ZM94.3543 19.5488H97.8534V0H94.1322V7.39674C93.7779 6.71365 93.2388 6.1489 92.5791 5.76972C91.9194 5.39054 91.1668 5.2129 90.4111 5.25795C87.6263 5.25795 84.9899 7.39674 84.9899 12.4789C84.9899 17.1081 87.1562 19.8507 90.436 19.8507C91.2633 19.8921 92.0827 19.6694 92.7804 19.2136C93.4781 18.7578 94.0195 18.0915 94.3293 17.3072V19.5466L94.3543 19.5488ZM78.5094 19.5488H82.2057V5.66105H78.5094V19.5488ZM78.5094 3.24523H82.2057V0.176389H78.5094V3.24523ZM62.8129 19.5488H66.5092V12.5292C66.5092 9.86232 67.6183 8.55405 69.1954 8.55405C70.7232 8.55405 71.4381 9.65994 71.4381 11.5986V19.5742H75.1343V10.9444C75.1343 7.32154 73.7544 5.23307 70.7725 5.23307C69.8947 5.19294 69.0244 5.41413 68.2675 5.86973C67.5107 6.32533 66.8998 6.9957 66.5092 7.79928V0H62.8129V19.5488ZM55.5656 13.9381C55.5656 16.0011 54.2842 17.311 52.7564 17.311C52.5103 17.3242 52.2642 17.2845 52.0341 17.1943C51.8039 17.1041 51.595 16.9656 51.4207 16.7876C51.2464 16.6097 51.1107 16.3963 51.0224 16.1614C50.934 15.9264 50.8951 15.6751 50.908 15.4238C50.908 14.3417 51.598 13.765 53.2244 13.4614L55.59 13.0086V13.9397L55.5656 13.9381ZM59.8039 19.5488C59.3355 18.4164 59.2862 17.687 59.2862 15.5986V10.3909C59.2862 6.89356 57.7335 5.23307 53.9387 5.23307C50.9568 5.23307 48.8625 6.28974 47.7534 7.39674L49.5027 9.88499C50.0021 9.31873 50.6147 8.86849 51.2992 8.56467C51.9837 8.26086 52.724 8.11053 53.4702 8.12386C54.6774 8.12386 55.565 8.47609 55.565 10.1117V10.6403L52.5588 11.1186C49.4783 11.5969 47.384 12.7288 47.384 15.572C47.384 18.1382 49.0087 20 51.7951 20C53.89 20 55.2206 18.9433 55.7871 17.5847C55.8323 18.2539 55.9649 18.9139 56.1814 19.5471H59.8039V19.5488ZM32.2297 19.5488H35.9259V12.5292C35.9259 9.86232 37.0351 8.55405 38.6121 8.55405C40.1399 8.55405 40.8548 9.65994 40.8548 11.5986V19.5742H44.551V10.9444C44.551 7.32154 43.1711 5.23307 40.1892 5.23307C39.3114 5.19294 38.4412 5.41413 37.6843 5.86973C36.9274 6.32533 36.3165 6.9957 35.9259 7.79928V0H32.2297V19.5488ZM18.0382 17.9154C19.5417 19.274 21.5866 19.9784 24.0264 19.9784C26.737 19.9784 29.5954 18.4938 29.5954 15.3741C29.5954 10.4429 22.2766 11.4996 22.2766 9.15952C22.2766 8.30412 23.0159 7.97678 23.8537 7.97678C25.2472 8.0106 26.5905 8.51501 27.6734 9.41112L29.3734 6.92287C27.8154 5.74905 25.9112 5.1542 23.9766 5.23694C21.1918 5.23694 18.5305 6.57064 18.5305 9.58972C18.5305 14.7476 25.8737 13.2884 25.8737 15.8795C25.8737 16.8355 24.8388 17.238 23.8775 17.238C23.1087 17.2208 22.351 17.0473 21.6487 16.7276C20.9463 16.4079 20.3134 15.9486 19.787 15.3763L18.0382 17.9154ZM0 12.7304C0 15.7495 0.98567 19.974 7.58963 19.974C14.1936 19.974 15.1793 15.7716 15.1793 12.7304V0H11.2106V12.5043C11.2106 15.2718 9.87995 16.4545 7.58801 16.4545C5.29606 16.4545 3.96541 15.2718 3.96541 12.4037V0H0V12.7304Z" fill="white"/>
    </symbol>
    <symbol id="ush-logo" viewBox="0 0 105 20" fill="none">
        <path d="M38.603 34.6487C40.4791 34.6487 41.9999 33.0928 41.9999 31.1734C41.9999 29.254 40.4791 27.698 38.603 27.698C36.7269 27.698 35.2061 29.254 35.2061 31.1734C35.2061 33.0928 36.7269 34.6487 38.603 34.6487Z" fill="#FFC235"/>
        <path fill-rule="evenodd" clip-rule="evenodd" d="M37.1916 11.0344C38.2932 10.101 39.0062 8.7737 39.1861 7.32197C39.3659 5.87023 38.9989 4.4029 38.1597 3.21791C37.3205 2.03292 36.072 1.2191 34.6676 0.941706C33.2632 0.664309 31.8083 0.944125 30.5982 1.72434C30.4304 1.22114 30.1129 0.784289 29.6901 0.475057C29.2674 0.165824 28.7607 -0.000282332 28.241 3.08717e-05C27.8618 -0.00189723 27.4874 0.0865149 27.1474 0.258267C26.8073 0.430019 26.5111 0.680395 26.282 0.98957C24.6901 0.49881 23.0362 0.25085 21.3735 0.253687C18.3531 0.250748 15.3857 1.0659 12.7729 2.61632C10.1601 4.16674 7.995 6.39716 6.49766 9.08094C4.81299 9.29299 3.25075 10.091 2.07274 11.3413C0.894731 12.5915 0.17254 14.218 0.0271948 15.9482C-0.11815 17.6784 0.322183 19.4071 1.2744 20.8447C2.22662 22.2822 3.63286 23.3413 5.25746 23.8443C6.45699 27.1719 8.60835 30.0527 11.4312 32.1113C12.3486 34.6505 14.0733 36.8007 16.3286 38.2166C18.5838 39.6325 21.2386 40.232 23.8669 39.9189C26.4951 39.6058 28.9443 38.3983 30.8212 36.4901C32.6981 34.5819 33.8938 32.0838 34.2164 29.3969C36.3425 26.9273 37.7485 23.8968 38.2745 20.6501C38.8004 17.4034 38.4252 14.0709 37.1916 11.0316M21.3735 31.5304C18.7181 31.528 16.1231 30.72 13.9165 29.2086C11.7099 27.6972 9.99096 25.5504 8.97699 23.0395C7.96303 20.5286 7.69959 17.7665 8.22 15.1025C8.74041 12.4384 10.0213 9.9921 11.9007 8.07283C13.78 6.15357 16.1735 4.84758 18.7784 4.32002C21.3832 3.79246 24.0825 4.06702 26.5349 5.10898C28.9872 6.15095 31.0825 7.91352 32.5557 10.1738C34.0289 12.4341 34.8139 15.0905 34.8114 17.8073C34.8021 21.4483 33.3825 24.937 30.8637 27.5093C28.345 30.0815 24.9324 31.5274 21.3735 31.5304Z" fill="#FFC235"/>
        <path d="M3.49441 9.18214C4.56246 9.18214 5.42828 8.29633 5.42828 7.20362C5.42828 6.11091 4.56246 5.2251 3.49441 5.2251C2.42637 5.2251 1.56055 6.11091 1.56055 7.20362C1.56055 8.29633 2.42637 9.18214 3.49441 9.18214Z" fill="#FFC235"/>
        <path d="M23.7301 28.4844C22.233 28.3749 20.7526 28.0944 19.3164 27.6482C18.8701 28.587 18.499 29.145 18.25 29.2465C19.0962 29.5161 19.9697 29.6863 20.8536 29.7538H20.9527C22.005 29.7179 23.0018 29.2623 23.7301 28.4844Z" fill="#FFC235"/>
        <path d="M20.9507 29.7551H21.1245C21.0972 29.7679 21.0676 29.7745 21.0376 29.7745C21.0076 29.7745 20.978 29.7679 20.9507 29.7551Z" fill="#FFC235"/>
        <path d="M11.6782 10.9091C11.6935 10.8971 11.706 10.8818 11.7147 10.8643C11.7233 10.8468 11.728 10.8276 11.7284 10.8081C11.7036 10.8586 11.6782 10.8836 11.6782 10.9091Z" fill="#FFC235"/>
        <path d="M27.1785 28.2819C27.3529 28.1868 27.5188 28.0764 27.6744 27.9519C26.6315 28.3619 25.5182 28.5515 24.4017 28.5094C23.5782 29.2951 22.5026 29.7461 21.377 29.7777H21.5006C23.2127 29.7757 24.9042 29.3954 26.4593 28.6627L26.5089 28.6376C26.7077 28.5356 26.9557 28.4085 27.1785 28.2819Z" fill="#FFC235"/>
        <path d="M18.0981 29.2747C18.5214 29.4033 18.952 29.5053 19.3874 29.58C18.9907 29.5034 18.57 29.4022 18.1477 29.2747H18.0981Z" fill="#FFC235"/>
        <path d="M17.8774 29.1978C17.945 29.2189 18.0113 29.2443 18.0758 29.2738L17.902 29.2229L17.8774 29.1978Z" fill="#FFC235"/>
        <path d="M19.8128 29.6525C19.7136 29.6267 19.6145 29.6267 19.4902 29.6016C19.5959 29.6291 19.704 29.6461 19.8128 29.6525Z" fill="#FFC235"/>
        <path d="M11.2827 11.5424L11.5061 11.1616L11.2827 11.5424Z" fill="#FFC235"/>
        <path d="M14.9001 27.7233C14.8751 27.7233 14.8751 27.6978 14.8496 27.6978C14.8746 27.6983 14.8746 27.6983 14.9001 27.7233Z" fill="#FFC235"/>
        <path d="M16.3397 28.5631C16.0154 28.4146 15.7008 28.2451 15.3975 28.0558L15.2983 28.0056C16.0609 28.4904 16.8764 28.882 17.7281 29.1724H17.7504C17.2573 28.9695 16.7859 28.7922 16.3397 28.5631Z" fill="#FFC235"/>
        <path d="M14.4275 27.3951C14.403 27.37 14.3779 27.37 14.3779 27.3442C14.4771 27.4209 14.5518 27.4712 14.6504 27.5478C14.6008 27.5221 14.5512 27.4712 14.4766 27.4203C14.4526 27.3951 14.4526 27.3951 14.4275 27.3951Z" fill="#FFC235"/>
        <path d="M20.8548 29.7538C20.7794 29.7578 20.7039 29.7491 20.6313 29.728C20.7801 29.728 20.9289 29.7538 21.0776 29.7538H20.8542H20.8548Z" fill="#FFC235"/>
        <path d="M14.2127 19.8623C12.992 19.0724 11.9175 18.0675 11.0392 16.8943C10.4945 18.4726 10.3662 20.17 10.667 21.8152C11.4372 22.8455 12.3777 23.7298 13.446 24.4282C13.4195 22.8705 13.6796 21.3216 14.2127 19.8623Z" fill="#FFC235"/>
        <path d="M14.1126 25.2913C14.1069 25.76 14.1916 26.2253 14.3617 26.6605C14.5319 27.0957 14.7842 27.4924 15.1043 27.8278C15.4654 28.051 15.8379 28.2542 16.2203 28.4366C16.7277 28.6808 17.2495 28.8926 17.7825 29.071C18.075 28.526 18.3238 27.9575 18.5263 27.3712C17.6549 27.0688 16.802 26.713 15.9723 26.3059C15.3292 26.0143 14.7076 25.6751 14.1126 25.2913Z" fill="#FFC235"/>
        <path d="M14.4328 19.201C15.1007 17.4228 15.9836 15.7373 17.0609 14.1836C16.009 13.494 15.0791 12.6269 14.3107 11.6191C13.0071 12.9381 11.9703 14.5068 11.2593 16.2357C12.1442 17.4019 13.2175 18.4048 14.4328 19.201Z" fill="#FFC235"/>
        <path d="M14.5788 10.7035C15.9983 9.475 17.6295 8.52869 19.3887 7.91325C19.2592 7.72357 19.174 7.50599 19.1397 7.2773C19.1055 7.04861 19.123 6.81491 19.1909 6.59424C17.4183 6.81901 15.721 7.46155 14.2323 8.4713C14.1176 8.84548 14.0892 9.24174 14.1494 9.62902C14.2095 10.0163 14.3565 10.3841 14.5788 10.7035Z" fill="#FFC235"/>
        <path d="M31.588 17.3247C30.5261 17.7608 29.383 17.9511 28.2407 17.8822C28.2082 19.7853 27.9076 21.6736 27.3481 23.4888C28.6696 23.5662 29.9914 23.3408 31.217 22.8293C31.7496 21.0475 31.8765 19.1645 31.588 17.3247Z" fill="#FFC235"/>
        <path d="M26.3331 24.1241C24.5659 23.9982 22.8185 23.6662 21.1249 23.1345C20.5299 24.8594 19.9594 26.2565 19.4902 27.2945C20.9731 27.7616 22.504 28.0511 24.0522 28.1569C25.0612 26.9769 25.8359 25.6071 26.3331 24.1241Z" fill="#FFC235"/>
        <path d="M14.8271 11.1089C15.562 12.0905 16.4601 12.932 17.4803 13.5948C18.5176 12.1234 19.734 10.7933 21.1001 9.6366C20.5028 9.23919 19.9748 8.74229 19.5378 8.1665C17.8048 8.84397 16.2081 9.84132 14.8271 11.1089Z" fill="#FFC235"/>
        <path d="M24.7695 28.181C25.9299 28.242 27.0893 28.0428 28.1665 27.5973C29.4745 26.5279 30.4625 25.104 31.0179 23.488C29.789 23.9874 28.4699 24.2122 27.1491 24.1475C26.6363 25.6455 25.8261 27.0188 24.7695 28.181Z" fill="#FFC235"/>
        <path d="M23.2329 16.312C24.6466 16.7456 26.101 17.0258 27.572 17.1483C27.6311 15.3233 27.4559 13.4983 27.0511 11.72C26.1859 11.6489 25.3301 11.4873 24.4971 11.2378C24.1505 12.7608 23.7288 14.4857 23.2329 16.312Z" fill="#FFC235"/>
        <path d="M10.5148 13.1418C10.4401 13.3191 10.3905 13.497 10.3164 13.6742L10.3409 13.5984L10.5148 13.1418Z" fill="#FFC235"/>
        <path d="M31.4664 16.6409C31.0907 14.7746 30.3659 13.0003 29.332 11.4155C28.7253 11.6591 28.076 11.7714 27.4248 11.7456C27.9348 13.5084 28.2018 15.3354 28.2182 17.1738C29.3258 17.238 30.4339 17.0562 31.4664 16.6409Z" fill="#FFC235"/>
        <path d="M32.1802 16.1846C32.4183 15.9983 32.6082 15.7553 32.7336 15.4767C32.8589 15.1981 32.9159 14.8925 32.8995 14.5863C32.3677 12.9244 31.4387 11.4248 30.1968 10.2234C30.2067 10.4032 30.1735 10.5828 30.1 10.7465C30.0265 10.9101 29.9149 11.0529 29.775 11.1622C29.7135 11.2189 29.6471 11.2699 29.5767 11.3144C30.6681 12.8468 31.444 14.59 31.8576 16.4383C31.9819 16.3368 32.0832 16.2604 32.1802 16.1846Z" fill="#FFC235"/>
        <path d="M14.9496 20.343C14.4321 21.7928 14.1392 23.3164 14.0815 24.8587C14.6766 25.2138 15.2967 25.5689 15.9887 25.924C16.849 26.3463 17.7352 26.7107 18.6418 27.015C19.0385 25.9748 19.5595 24.5543 20.1545 22.8294C19.1246 22.4654 18.1158 22.0418 17.133 21.5606C16.3812 21.2014 15.652 20.7948 14.9496 20.343Z" fill="#FFC235"/>
        <path d="M19.6139 15.6509C18.9442 15.3214 18.2996 14.9657 17.7296 14.6106C16.711 16.2129 15.863 17.9223 15.2002 19.7094C15.8699 20.1152 16.5886 20.5211 17.3798 20.9269C18.3645 21.4072 19.3751 21.8297 20.4068 22.1924C21.0269 20.4168 21.6464 18.5649 22.2414 16.7642C21.3489 16.4369 20.4563 16.0567 19.6139 15.6509Z" fill="#FFC235"/>
        <path d="M27.5445 17.8568C26.0142 17.7382 24.5011 17.4491 23.0321 16.9944C22.5112 18.8207 21.9423 20.6978 21.3462 22.4734C23.0393 23.0043 24.7861 23.3358 26.5527 23.4612C27.1207 21.6453 27.4541 19.7612 27.5445 17.8568Z" fill="#FFC235"/>
        <path d="M18.0981 14.0023C18.6845 14.3715 19.2886 14.7101 19.9083 15.0169C20.7271 15.4223 21.572 15.7698 22.4372 16.0572C23.0077 14.2816 23.5532 12.5567 24.024 11.0855C23.5281 10.9079 23.0322 10.705 22.5364 10.4768C22.1679 10.3082 21.8116 10.1131 21.47 9.89307C20.1961 11.1263 19.0647 12.5051 18.0981 14.0023Z" fill="#FFC235"/>
        <path d="M32.584 21.966C32.4388 22.3578 32.1897 22.7005 31.8648 22.9555C31.7427 23.0627 31.6097 23.1562 31.4681 23.2343C30.8797 24.8598 29.868 26.2896 28.5425 27.3692L28.7659 27.217C30.7015 25.6749 32.122 23.5568 32.832 21.1543L32.6581 21.6873L32.584 21.966Z" fill="#FFC235"/>
        <path d="M13.8897 8.54792C14.0024 8.36374 14.145 8.20064 14.3115 8.06569C14.361 8.01496 14.4106 7.98932 14.4602 7.93859L14.9316 7.60855C14.9878 7.55186 15.0555 7.50847 15.1299 7.48145C13.8836 8.30852 12.7919 9.35693 11.9062 10.5772C12.4645 9.80309 13.1331 9.11906 13.8897 8.54792Z" fill="#FFC235"/>
        <path d="M10.9566 15.7291C11.6529 13.9947 12.7106 12.4365 14.056 11.1633C13.8276 10.8321 13.6777 10.4512 13.6179 10.0505C13.5581 9.64989 13.5902 9.24052 13.7116 8.85474C12.5776 9.75384 11.64 10.8858 10.9593 12.1779C10.8105 12.4823 10.6618 12.8123 10.5375 13.0911C10.3994 13.5335 10.3654 14.003 10.4382 14.4614C10.511 14.9199 10.6886 15.3542 10.9566 15.7291Z" fill="#FFC235"/>
        <path d="M20.1821 7.94139C20.5609 8.45855 21.032 8.8976 21.5705 9.23532C22.6236 8.37034 23.8265 7.71598 25.1162 7.30642C23.4463 7.16455 21.7657 7.38082 20.1821 7.94139Z" fill="#FFC235"/>
        <path d="M20.1624 6.11166C20.0691 6.17665 19.9925 6.26366 19.939 6.36532C21.7039 6.2955 23.4629 6.61571 25.0959 7.30413C23.9339 6.42403 22.5656 5.87275 21.129 5.70581C20.7791 5.75774 20.4471 5.89714 20.1624 6.11166Z" fill="#FFC235"/>
        <path d="M10.7108 16.3849C10.4635 16.0247 10.2955 15.6138 10.2184 15.1807C10.1414 14.7476 10.1571 14.3025 10.2645 13.8762C9.87438 15.1052 9.67364 16.3889 9.66946 17.6811C9.66763 18.6028 9.76743 19.5218 9.96698 20.4206C10.061 20.757 10.1941 21.0806 10.3637 21.3845C10.0391 19.7162 10.159 17.9894 10.7108 16.3849Z" fill="#FFC235"/>
        <path d="M19.8633 6.54567C19.8035 6.74087 19.7881 6.94745 19.8182 7.14967C19.8483 7.35189 19.9232 7.54439 20.0371 7.71249C21.6866 7.22365 23.4164 7.08553 25.12 7.30664C23.4405 6.67368 21.6485 6.41426 19.8633 6.54567Z" fill="#FFC235"/>
        <path d="M23.9729 5.81025C23.9233 5.81025 23.8982 5.78461 23.8492 5.78461C24.345 5.88607 24.7913 6.39338 25.1139 7.30655C25.6348 6.67213 26.0064 6.44412 26.2037 6.54558C26.3274 6.59631 26.4762 6.67268 26.6004 6.72342C26.2533 6.57122 25.7574 6.74906 25.0877 7.3071C26.3156 7.17161 27.5543 7.4287 28.6334 8.04299C28.2642 7.71772 27.8658 7.42896 27.4434 7.18056C27.4183 7.18056 27.4183 7.15547 27.3938 7.15547C27.3687 7.12982 27.3442 7.12982 27.3191 7.10474C27.2445 7.07909 27.1949 7.02836 27.1208 7.00327L26.972 6.9269C25.9587 6.38071 24.8734 5.9875 23.75 5.75952H23.7996L23.9729 5.81025Z" fill="#FFC235"/>
        <path d="M27.1526 7.00119C27.1799 7.028 27.2144 7.04574 27.2517 7.05209C27.1771 7.00119 27.103 6.97546 27.0283 6.92456C27.0779 6.97546 27.1275 6.97546 27.152 7.00119H27.1526Z" fill="#FFC235"/>
        <path d="M11.6762 24.402C11.552 24.1991 11.4283 23.9962 11.3291 23.8183L11.3041 23.7676C10.9727 23.1947 10.7145 22.5808 10.5357 21.9407C10.3913 21.6719 10.2669 21.3924 10.1636 21.1045C10.5273 22.3764 11.0972 23.5769 11.8495 24.6557C11.7999 24.5793 11.7503 24.5291 11.7007 24.4528C11.7007 24.4277 11.6762 24.4277 11.6762 24.402Z" fill="#FFC235"/>
        <path d="M21.8728 5.55722H21.5257C20.9808 5.55722 20.4593 5.60812 19.939 5.65902C20.2666 5.60403 20.5993 5.58695 20.9307 5.60812C21.2428 5.56371 21.5579 5.54669 21.8728 5.55722Z" fill="#FFC235"/>
        <path d="M14.7997 7.68615C14.6335 7.82028 14.4909 7.98241 14.3779 8.16559C15.8464 7.19205 17.5212 6.59186 19.2624 6.41508C19.3317 6.31059 19.4152 6.21673 19.5104 6.13634C19.8208 5.88688 20.1875 5.72108 20.5768 5.65411C20.0524 5.65202 19.5291 5.703 19.0145 5.80631C19.2625 5.75558 19.6096 5.70485 19.8575 5.65411C18.1701 5.89683 16.5543 6.51139 15.1217 7.45535L14.9228 7.58469C14.8937 7.63138 14.8505 7.66703 14.7997 7.68615Z" fill="#FFC235"/>
        <path d="M23.458 5.70559C22.7788 5.58187 22.086 5.55635 21.3999 5.62977C22.762 5.81562 24.0438 6.39589 25.0943 7.30223C24.6481 6.36509 24.0776 5.83214 23.458 5.70559Z" fill="#FFC235"/>
        <path d="M23.3798 5.70775H23.4294C23.1569 5.65685 22.8845 5.63113 22.5864 5.60596C22.8524 5.62577 23.1172 5.65974 23.3798 5.70775Z" fill="#FFC235"/>
        <path d="M29.2803 8.54712C29.6969 8.92558 29.9982 9.41869 30.1483 9.9676C31.3854 11.1124 32.3158 12.5619 32.851 14.1783C32.826 14.0768 32.8014 14.0005 32.7764 13.8996C32.1854 12.0251 31.1554 10.327 29.7761 8.95297L29.8753 9.05443C29.677 8.87715 29.4786 8.72496 29.2803 8.54712Z" fill="#FFC235"/>
        <path d="M22.8586 9.96941C23.3049 10.1723 23.7512 10.3753 24.1975 10.5269C24.5942 9.20788 24.9167 8.09179 25.1151 7.30518C23.9319 7.81207 22.8483 8.53395 21.9165 9.43589C22.2103 9.64877 22.5263 9.82769 22.8586 9.96941Z" fill="#FFC235"/>
        <path d="M27.7474 7.35912C27.6482 7.28249 27.524 7.23159 27.4248 7.15552C27.4281 7.15545 27.4314 7.15606 27.4345 7.15733C27.4376 7.15859 27.4404 7.16048 27.4427 7.16289C27.445 7.16529 27.4469 7.16816 27.4481 7.17132C27.4493 7.17447 27.4499 7.17785 27.4499 7.18125C27.524 7.23159 27.6232 7.28305 27.7474 7.35912Z" fill="#FFC235"/>
        <path d="M33.0725 15.1948C33.0902 15.511 33.0317 15.8268 32.902 16.1144C32.7723 16.402 32.5754 16.6525 32.3287 16.8439C32.2173 16.9344 32.1014 17.019 31.9816 17.0975C32.306 18.9223 32.2041 20.7997 31.6841 22.5765C31.8328 22.475 31.9565 22.3987 32.0808 22.2978C32.4326 22.0057 32.6986 21.6198 32.8496 21.1828C33.179 20.0465 33.346 18.8675 33.3455 17.6823C33.3455 17.4036 33.3455 17.1494 33.3204 16.8957C33.2954 16.7179 33.2954 16.5657 33.2708 16.4391C33.2432 16.0189 33.1768 15.6023 33.0725 15.1948Z" fill="#FFC235"/>
        <path d="M33.2999 16.5414C33.2999 16.4647 33.2743 16.3629 33.2743 16.2869C33.2704 16.3391 33.2792 16.3915 33.2999 16.4396V16.5414Z" fill="#FFC235"/>
        <path d="M14.4799 27.4225C14.5546 27.4733 14.6538 27.5497 14.7279 27.5998C14.3557 27.259 14.0542 26.8452 13.8413 26.383C13.6284 25.9207 13.5083 25.4194 13.4882 24.9088C12.4544 24.2456 11.547 23.3956 10.8105 22.4001C11.0053 23.1191 11.3063 23.8034 11.7031 24.4294C11.7031 24.455 11.7282 24.455 11.7282 24.4801L11.8769 24.7087C12.5635 25.699 13.3898 26.5795 14.329 27.3216C14.3751 27.349 14.4169 27.3832 14.4532 27.4231C14.4554 27.3975 14.4554 27.3975 14.4799 27.4225Z" fill="#FFC235"/>
        <path d="M28.8882 8.27059C27.7475 7.58836 26.4398 7.25447 25.1196 7.30837C26.7796 7.70664 28.3358 8.46733 29.6816 9.53831C29.5197 9.05707 29.2476 8.62241 28.8882 8.27059Z" fill="#FFC235"/>
        <path d="M26.8778 11.112C26.5321 9.74405 25.9254 8.4595 25.0927 7.33228C25.0011 8.46012 24.827 9.57934 24.5718 10.6805C25.3253 10.8989 26.0975 11.0434 26.8778 11.112Z" fill="#FFC235"/>
        <path d="M28.9321 10.8315C27.8987 9.40097 26.591 8.20113 25.0889 7.30542C26.0399 8.41597 26.7648 9.70951 27.2211 11.1103C27.8048 11.153 28.3902 11.0576 28.9321 10.8315Z" fill="#FFC235"/>
        <path d="M28.041 7.55933L28.2644 7.71202L28.041 7.55933Z" fill="#FFC235"/>
        <path d="M29.4097 8.62402L29.5319 8.72501C29.4855 8.69938 29.4441 8.66515 29.4097 8.62402Z" fill="#FFC235"/>
        <path d="M29.1612 10.7061C29.2232 10.6699 29.2814 10.6273 29.335 10.579C29.4597 10.4819 29.5589 10.3547 29.6238 10.2088C29.6886 10.0628 29.7171 9.90271 29.7066 9.74275C28.3739 8.59137 26.8068 7.7587 25.1196 7.30542C26.6663 8.16519 28.0381 9.31946 29.1612 10.7061Z" fill="#FFC235"/>
        <path d="M11.6782 24.4033C11.6782 24.4288 11.7036 24.4288 11.7036 24.4538C11.7036 24.4288 11.6782 24.4288 11.6782 24.4033Z" fill="#FFC235"/>
        <path d="M11.849 24.6567C11.8054 24.5844 11.7557 24.5163 11.7002 24.4531C11.7437 24.5254 11.7935 24.5936 11.849 24.6567Z" fill="#FFC235"/>
    </symbol>
    <symbol id="tab_link" viewBox="0 0 16 16" fill="none">
        <path fill="#000000" fill-rule="evenodd" d="M5,2 C5.55228,2 6,2.44772 6,3 C6,3.55228 5.55228,4 5,4 L4,4 L4,12 L12,12 L12,11 C12,10.4477 12.4477,10 13,10 C13.5523,10 14,10.4477 14,11 L14,12 C14,13.1046 13.1046,14 12,14 L4,14 C2.89543,14 2,13.1046 2,12 L2,4 C2,2.89543 2.89543,2 4,2 L5,2 Z M15,1 L15,5.99814453 C15,6.55043453 14.5523,6.99814453 14,6.99814453 C13.4477,6.99814453 13,6.55043453 13,5.99814453 L13,4.41419 L8.71571,8.69846 C8.32519,9.08899 7.69202,9.08899 7.3015,8.69846 C6.91097,8.30794 6.91097,7.67477 7.3015,7.28425 L11.5858,3 L9.99619141,3 C9.44391141,3 8.99619141,2.55228 8.99619141,2 C8.99619141,1.44772 9.44391141,1 9.99619141,1 L15,1 Z"/>
    </symbol>
    <symbol id="tab_code" width="256px" height="256px" viewBox="0 0 24 24" fill="none"  >
        <path fill-rule="evenodd" d="M9.70711 6.29289C10.0976 6.68342 10.0976 7.31658 9.70711 7.70711L5.41421 12L9.70711 16.2929C10.0976 16.6834 10.0976 17.3166 9.70711 17.7071C9.31658 18.0976 8.68342 18.0976 8.29289 17.7071L3.29289 12.7071C2.90237 12.3166 2.90237 11.6834 3.29289 11.2929L8.29289 6.29289C8.68342 5.90237 9.31658 5.90237 9.70711 6.29289ZM14.2929 6.29289C14.6834 5.90237 15.3166 5.90237 15.7071 6.29289L20.7071 11.2929C21.0976 11.6834 21.0976 12.3166 20.7071 12.7071L15.7071 17.7071C15.3166 18.0976 14.6834 18.0976 14.2929 17.7071C13.9024 17.3166 13.9024 16.6834 14.2929 16.2929L18.5858 12L14.2929 7.70711C13.9024 7.31658 13.9024 6.68342 14.2929 6.29289Z" fill="#000000" />
    </symbol>
    <symbol id="github" viewBox="0 0 24 24" fill="#ffffff">
        <path d="M12,2A10,10,0,0,0,8.84,21.5c.5.08.66-.23.66-.5V19.31C6.73,19.91,6.14,18,6.14,18A2.69,2.69,0,0,0,5,16.5c-.91-.62.07-.6.07-.6a2.1,2.1,0,0,1,1.53,1,2.15,2.15,0,0,0,2.91.83,2.16,2.16,0,0,1,.63-1.34C8,16.17,5.62,15.31,5.62,11.5a3.87,3.87,0,0,1,1-2.71,3.58,3.58,0,0,1,.1-2.64s.84-.27,2.75,1a9.63,9.63,0,0,1,5,0c1.91-1.29,2.75-1,2.75-1a3.58,3.58,0,0,1,.1,2.64,3.87,3.87,0,0,1,1,2.71c0,3.82-2.34,4.66-4.57,4.91a2.39,2.39,0,0,1,.69,1.85V21c0,.27.16.59.67.5A10,10,0,0,0,12,2Z"></path>
    </symbol>
    <symbol id="checker" fill="#000000" viewBox="0 0 32 32">
    <g id="SVGRepo_bgCarrier" stroke-width="0"></g><g id="SVGRepo_tracerCarrier" stroke-linecap="round" stroke-linejoin="round"></g><g id="SVGRepo_iconCarrier"><defs><style>.cls-1{fill:none;}</style></defs><title>run</title><path d="M21,16a6,6,0,1,1-6,6,6,6,0,0,1,6-6m0-2a8,8,0,1,0,8,8,8,8,0,0,0-8-8Z"></path><path d="M26,4H6A2,2,0,0,0,4,6V26a2,2,0,0,0,2,2h4V26H6V12H28V6A2,2,0,0,0,26,4ZM6,10V6H26v4Z"></path><polygon points="19 19 19 25 24 22 19 19"></polygon><rect id="_Transparent_Rectangle_" data-name="<Transparent Rectangle>" class="cls-1" width="32" height="32"></rect></g>
    </symbol>
</svg>


